# xmcd
#
# Track frame offsets:
#	150
#	13362
#	24284
#	33772
#	42780
#	55252
#	65283
#	75161
#	84343
#	97156
#	107528
#	118540
#	127877
#	140137
#	149065
#	162922
#	172870
#	186028
#	195571
#	206174
#	216038
#	227366
#	237787
#	249714
#	259118
#	268800
#	278707
#	290664
#	303302
#	314350
#	324342
#	334094
#
# Disc length: 4664 seconds
#
# Revision: 0
# Processed by: cddbd v1.5.1PL2 Copyright (c) Steve Scherf et al.
# Submitted via: audiograbber 1.83.01
#
DISCID=c2123620
DTITLE=Various Artist - They Were Doin' The Mambo
DYEAR=1900
DGENRE=Rockabilly and Honky Tonk
TTITLE0=They Were Doin' The Mambo TEX WILLIAMS
TTITLE1=Too Much Mambo BOB WILLS
TTITLE2=That Crazy Mambo Thing HANK SNOW
TTITLE3=Tennessee Tango PEE WEE KING
TTITLE4=Tennessee Mambo WESLEY and MARILYN TUTTLE
TTITLE5=Texas Tango SHEB WOOLEY
TTITLE6=Banjo Mambo DARRELL GLENN
TTITLE7=Hill Billy Mambo HANK SNOW
TTITLE8=The Rhumba Boogie HANK SNOW
TTITLE9=Mountain Mambo COUNTRY CATS
TTITLE10=They Were Doin' The Mambo HOMER and JETHRO
TTITLE11=We Wanna See Santa Do The Mambo TERRY FELL
TTITLE12=Tennessee Tango THE YORK BROTHERS
TTITLE13=The Mambo Queen ROCKIN' RUDY HANSEN
TTITLE14=They Were Doin' The Mambo MARTI BROM
TTITLE15=Papa Loves Mambo GRANDPA JONES and MINNIE PEARL
TTITLE16=Tennessee Mambo JUNE CARTER
TTITLE17=Chopsticks Mambo CURTIS GORDON
TTITLE18=The Train With The Rhumba Beat RUSTY DRAPER
TTITLE19=The Mambo Reminds Me Of You LARRY DEXTER
TTITLE20=Too Young To Tango SUNSHINE RUBY
TTITLE21=Too Old To Tango ERNEST TUBB and RED FOLEY
TTITLE22=Mambo Rock BILL HALEY
TTITLE23=Rodeo Twist REX ALLEN
TTITLE24=Hillbilly Twist HARDROCK GUNTER
TTITLE25=Buffalo Twist BOB WILLS
TTITLE26=Mama Teach Me JUNE CARTER
TTITLE27=Cowboy Twist LOU COLBURN
TTITLE28=Moon Twist CHUCK DALLIS
TTITLE29=Muleskinner Twist RAY KANNON
TTITLE30=Country Twist CHARLIE and BILL
TTITLE31=Really Big Country Go-Go Shew THE GREAT PRETENDER
EXTD=
EXTT0=
EXTT1=
EXTT2=
EXTT3=
EXTT4=
EXTT5=
EXTT6=
EXTT7=
EXTT8=
EXTT9=
EXTT10=
EXTT11=
EXTT12=
EXTT13=
EXTT14=
EXTT15=
EXTT16=
EXTT17=
EXTT18=
EXTT19=
EXTT20=
EXTT21=
EXTT22=
EXTT23=
EXTT24=
EXTT25=
EXTT26=
EXTT27=
EXTT28=
EXTT29=
EXTT30=
EXTT31=
PLAYORDER=
